<svg width="200" height="177" viewBox="0 0 200 177" fill="none" xmlns="http://www.w3.org/2000/svg">
<g clip-path="url(#clip0_1278_979)">
<path d="M128.442 159.169L127.952 152.343C124.737 150.737 121.179 149.939 117.586 150.019C122.641 153.926 122.236 161.735 125.736 167.079C126.841 168.738 128.305 170.126 130.019 171.142C131.733 172.158 133.654 172.775 135.639 172.948L139.846 175.368C140.327 172.188 140.113 168.941 139.219 165.851C138.324 162.761 136.77 159.902 134.664 157.47C133.469 156.118 132.109 154.921 130.615 153.909C129.696 156.549 128.442 159.169 128.442 159.169Z" fill="#F2F2F2"/>
<path d="M103.387 176.277H199.693C199.775 176.277 199.854 176.245 199.912 176.187C199.969 176.129 200.002 176.05 200.002 175.969C200.002 175.887 199.969 175.808 199.912 175.75C199.854 175.693 199.775 175.66 199.693 175.66H103.387C103.305 175.66 103.226 175.693 103.168 175.75C103.111 175.808 103.078 175.887 103.078 175.969C103.078 176.05 103.111 176.129 103.168 176.187C103.226 176.245 103.305 176.277 103.387 176.277Z" fill="#CCCCCC"/>
<path d="M42.0667 102.623V102.755H42.1588C42.1254 102.713 42.0947 102.669 42.0667 102.623ZM42.775 46.6282C36.3465 54.9886 32.8667 65.2421 32.8789 75.7883C32.8804 77.3943 32.9591 78.9776 33.115 80.5382C33.139 80.8064 33.1669 81.0745 33.2031 81.3386C34.0963 89.0997 36.8846 96.522 41.3224 102.951C41.4944 103.204 41.6704 103.452 41.8467 103.7C43.7571 106.378 45.9381 108.853 48.3552 111.085C67.8136 129.053 98.1536 127.844 116.121 108.386C116.397 108.094 116.662 107.798 116.922 107.501C124.276 99.1724 128.507 88.5462 128.89 77.4416C129.273 66.337 125.785 55.4445 119.023 46.6282C118.818 46.3601 118.61 46.092 118.394 45.8279C117.921 45.2317 117.43 44.6474 116.922 44.0752C116.662 43.7791 116.397 43.4829 116.121 43.1908C111.635 38.3252 106.189 34.4426 100.126 31.7881C94.0639 29.1336 87.5169 27.7649 80.8988 27.7684C80.4386 27.7684 79.9824 27.7764 79.5261 27.7885C79.2219 27.7964 78.9179 27.8084 78.6138 27.8245C71.8018 28.1478 65.1373 29.9211 59.0653 33.0257C52.9933 36.1303 47.6537 40.4949 43.4032 45.8279C43.1871 46.092 42.9792 46.3601 42.775 46.6282L42.775 46.6282ZM42.1588 102.755C42.1254 102.713 42.0947 102.669 42.0667 102.623V102.755H42.1588Z" fill="white"/>
<path d="M41.7324 102.131L41.8684 101.855L52.0566 81.3386V81.3346L52.4529 80.5382V80.5342L69.2836 46.6282V46.6242L69.6799 45.8279L69.6838 45.8239L78.2074 28.6448L78.6156 27.8245C78.9198 27.8085 79.2239 27.7965 79.5279 27.7885L79.1238 28.6048L70.5764 45.8239V45.8279L70.1801 46.6242V46.6282L52.9089 81.4186L52.905 81.4226L42.7168 101.955L42.3166 102.755L42.2525 102.887L41.8484 103.7C41.6722 103.452 41.4962 103.204 41.3242 102.951L41.7324 102.131Z" fill="#3F3D56"/>
<path d="M52.7374 80.5383V81.3387H33.2053C33.1692 81.0746 33.1412 80.8064 33.1172 80.5383H52.7374Z" fill="#3F3D56"/>
<path d="M83.0898 86.7813V85.981H102.622C102.658 86.2451 102.686 86.5132 102.71 86.7813H83.0898Z" fill="#3F3D56"/>
<path d="M99.4258 83.9929H100.226V103.525C99.962 103.561 99.6939 103.589 99.4258 103.613V83.9929Z" fill="#3F3D56"/>
<path d="M119.025 46.6282C118.821 46.3601 118.613 46.092 118.397 45.8279H116.924V44.0752C116.664 43.779 116.4 43.4829 116.124 43.1908V45.8279H43.4055C43.1894 46.092 42.9815 46.3601 42.7773 46.6282H116.124V108.386C116.4 108.094 116.664 107.797 116.924 107.501V46.6282H119.025Z" fill="#3F3D56"/>
<path d="M116.522 101.955H42.0664V102.755H116.522V101.955Z" fill="#3F3D56"/>
<path d="M42.0667 102.623V102.755H42.1588C42.1254 102.713 42.0947 102.669 42.0667 102.623ZM42.775 46.6282C36.3465 54.9886 32.8667 65.2421 32.8789 75.7883C32.8804 77.3943 32.9591 78.9776 33.115 80.5382C33.139 80.8064 33.1669 81.0745 33.2031 81.3386C34.0963 89.0997 36.8846 96.522 41.3224 102.951C41.4944 103.204 41.6704 103.452 41.8467 103.7C43.7571 106.378 45.9381 108.853 48.3552 111.085C67.8136 129.053 98.1536 127.844 116.121 108.386C116.397 108.094 116.662 107.798 116.922 107.501C124.276 99.1724 128.507 88.5462 128.89 77.4416C129.273 66.337 125.785 55.4445 119.023 46.6282C118.818 46.3601 118.61 46.092 118.394 45.8279C117.921 45.2317 117.43 44.6474 116.922 44.0752C116.662 43.7791 116.397 43.4829 116.121 43.1908C111.635 38.3252 106.189 34.4426 100.126 31.7881C94.0639 29.1336 87.5169 27.7649 80.8988 27.7684C80.4386 27.7684 79.9824 27.7764 79.5261 27.7885C79.2219 27.7964 78.9179 27.8084 78.6138 27.8245C71.8018 28.1478 65.1373 29.9211 59.0653 33.0257C52.9933 36.1303 47.6537 40.4949 43.4032 45.8279C43.1871 46.092 42.9792 46.3601 42.775 46.6282L42.775 46.6282ZM34.0073 81.3386C33.9714 81.0745 33.9434 80.8064 33.9153 80.5382C32.6955 68.3841 36.2325 56.23 43.7834 46.6282C43.9954 46.3601 44.2076 46.092 44.4277 45.8279C48.5634 40.7834 53.7006 36.6517 59.5147 33.694C65.3287 30.7364 71.6932 29.0171 78.2057 28.6448C78.5097 28.6288 78.8139 28.6128 79.122 28.6048C79.7102 28.5808 80.3024 28.5688 80.8988 28.5688C87.5534 28.5648 94.1332 29.9715 100.205 32.6961C106.276 35.4207 111.701 39.4012 116.121 44.3753C116.397 44.6794 116.665 44.9835 116.922 45.2957C117.078 45.4717 117.226 45.6478 117.37 45.8279C117.59 46.092 117.802 46.3601 118.014 46.6282C124.742 55.1707 128.309 65.7772 128.11 76.6494C127.911 87.5217 123.958 97.9905 116.922 106.281C116.665 106.593 116.397 106.897 116.121 107.201C113.685 109.939 110.938 112.383 107.935 114.484C86.5945 129.42 57.1866 124.228 42.2508 102.887C42.2187 102.843 42.1867 102.799 42.1587 102.755C42.1254 102.713 42.0946 102.669 42.0667 102.623C41.9507 102.459 41.8387 102.295 41.7306 102.131C37.5272 95.9193 34.8784 88.7882 34.0073 81.3386L34.0073 81.3386ZM42.1588 102.755C42.1254 102.713 42.0947 102.669 42.0667 102.623V102.755H42.1588Z" fill="#CCCCCC"/>
<path d="M136.204 127.365H88.2954C87.7096 127.364 87.148 127.131 86.7338 126.717C86.3196 126.303 86.0866 125.741 86.0859 125.156V101.812C86.0866 101.226 86.3196 100.665 86.7338 100.25C87.148 99.8362 87.7096 99.6032 88.2954 99.6025H136.204C136.79 99.6032 137.351 99.8362 137.765 100.25C138.18 100.665 138.413 101.226 138.413 101.812V125.156C138.413 125.741 138.18 126.303 137.765 126.717C137.351 127.131 136.79 127.364 136.204 127.365Z" fill="#CACACA"/>
<path d="M115.101 125.487C104.609 125.487 93.6683 125.387 89.5862 125.322C89.0491 125.31 88.5377 125.09 88.161 124.707C87.7844 124.324 87.5724 123.809 87.5703 123.272V101.814C87.5705 101.621 87.6469 101.437 87.7828 101.301C87.9186 101.165 88.1029 101.088 88.2952 101.087H136.202C136.395 101.087 136.579 101.164 136.715 101.299C136.851 101.435 136.928 101.62 136.929 101.812V116.371C136.92 118.747 135.98 121.025 134.31 122.717C132.641 124.408 130.375 125.378 127.999 125.418C124.194 125.467 119.689 125.487 115.101 125.487Z" fill="#E4E4E4"/>
<path d="M131.259 114.501H92.2778C92.025 114.501 91.7785 114.423 91.572 114.277C91.3654 114.131 91.2089 113.925 91.1237 113.687L86.7117 101.31C86.6459 101.125 86.6254 100.927 86.6519 100.733C86.6784 100.538 86.7512 100.353 86.8641 100.193C86.977 100.032 87.1268 99.9015 87.3008 99.8111C87.4748 99.7206 87.668 99.6733 87.8642 99.673L136.591 99.605H136.593C136.795 99.605 136.995 99.6553 137.173 99.7514C137.352 99.8476 137.504 99.9865 137.615 100.156C137.727 100.325 137.795 100.519 137.813 100.721C137.831 100.923 137.799 101.127 137.719 101.313L137.652 101.284L137.719 101.313L132.385 113.759C132.291 113.979 132.134 114.167 131.933 114.299C131.733 114.431 131.498 114.501 131.259 114.501Z" fill="#CACACA"/>
<path d="M103.575 123.08H90.1337C89.8029 123.079 89.4857 122.948 89.2518 122.714C89.018 122.479 88.8867 122.162 88.8867 121.831C88.8867 121.5 89.018 121.183 89.2518 120.949C89.4857 120.715 89.8029 120.583 90.1337 120.582H103.575C103.906 120.583 104.224 120.715 104.457 120.949C104.691 121.183 104.822 121.5 104.822 121.831C104.822 122.162 104.691 122.479 104.457 122.714C104.224 122.948 103.906 123.079 103.575 123.08Z" fill="#CACACA"/>
<path d="M112.177 117.554C113.863 117.554 115.23 116.187 115.23 114.501C115.23 112.815 113.863 111.449 112.177 111.449C110.492 111.449 109.125 112.815 109.125 114.501C109.125 116.187 110.492 117.554 112.177 117.554Z" fill="#3F3D56"/>
<path d="M15.4292 6.31166C22.9293 1.02978 32.2205 -1.05633 41.2588 0.512225C50.297 2.08078 58.342 7.17553 63.6239 14.6757C74.6228 30.2939 85.6594 71.2489 77.8687 94.9744C54.6308 70.4289 18.9306 67.8783 7.06514 54.5064C-5.61353 40.218 -0.189087 17.3106 15.4292 6.31166Z" fill="#6C63FF"/>
<path d="M35.8155 41.6783C42.0455 41.6783 47.0959 36.6279 47.0959 30.3979C47.0959 24.1679 42.0455 19.1176 35.8155 19.1176C29.5855 19.1176 24.5352 24.1679 24.5352 30.3979C24.5352 36.6279 29.5855 41.6783 35.8155 41.6783Z" fill="white"/>
<path d="M87.404 107.259C91.4845 107.259 94.7924 103.952 94.7924 99.8711C94.7924 95.7906 91.4845 92.4827 87.404 92.4827C83.3235 92.4827 80.0156 95.7906 80.0156 99.8711C80.0156 103.952 83.3235 107.259 87.404 107.259Z" fill="#6C63FF"/>
<path opacity="0.2" d="M23.7459 27.795C22.999 29.0743 22.5114 30.4881 22.3109 31.9558C22.1103 33.4235 22.2009 34.9163 22.5773 36.349C22.9537 37.7817 23.6086 39.1263 24.5046 40.3059C25.4006 41.4855 26.5202 42.4771 27.7995 43.224C29.0787 43.9709 30.4925 44.4585 31.9602 44.6591C33.4279 44.8596 34.9207 44.7691 36.3534 44.3927C37.7861 44.0163 39.1307 43.3613 40.3103 42.4653C41.4899 41.5693 42.4815 40.4497 43.2284 39.1705C41.2149 40.9368 38.6385 41.929 35.9604 41.9694C33.2822 42.0097 30.6771 41.0957 28.6113 39.3908C26.5455 37.6859 25.1539 35.3015 24.6855 32.6643C24.2171 30.0271 24.7025 27.3093 26.0549 24.9973C25.1393 25.7992 24.3596 26.744 23.7459 27.795Z" fill="#231F20"/>
<path opacity="0.2" d="M7.04495 54.5596C18.9104 67.9315 54.6107 70.4821 77.8485 95.0277C78.5738 92.7829 79.132 90.4875 79.5187 88.1603C56.2925 65.8461 22.5797 63.0261 11.1155 50.1064C0.854838 38.543 2.45207 21.3357 11.7122 9.36267C-0.987926 21.1352 -4.57385 41.4657 7.04495 54.5596Z" fill="#231F20"/>
<path d="M154.529 101.805L149.739 100.346C147.654 102.86 145.925 110.143 145.925 110.143L139.368 120.797C139.017 120.964 138.717 121.22 138.496 121.539C138.276 121.859 138.143 122.231 138.112 122.619C138.082 123.006 138.153 123.394 138.32 123.745C138.487 124.096 138.744 124.396 139.064 124.616C139.384 124.836 139.756 124.968 140.143 124.998C140.53 125.029 140.919 124.957 141.269 124.789C141.62 124.622 141.92 124.365 142.14 124.045C142.359 123.725 142.491 123.352 142.521 122.965L152.443 110.918L154.529 101.805Z" fill="#FFB6B6"/>
<path d="M154.441 102.968L155.326 95.7159L153.342 92.4019C152.95 91.7527 152.384 91.2261 151.709 90.8815C151.033 90.5369 150.275 90.3882 149.519 90.4521C148.495 90.5456 147.545 91.0243 146.861 91.7915C146.177 92.5586 145.809 93.557 145.833 94.5847C145.908 97.7015 146.399 101.643 148.315 102.72L148.334 102.731L154.441 102.968Z" fill="#6C63FF"/>
<path d="M167.971 168.493L165.098 169.88L158.383 159.46L162.623 157.413L167.971 168.493Z" fill="#FFB6B6"/>
<path d="M169.521 171.441L160.687 175.705L160.633 175.594C160.193 174.682 160.133 173.632 160.467 172.676C160.8 171.72 161.5 170.936 162.412 170.496L162.412 170.495L163.435 168.492L167.036 168.263L167.808 167.891L169.521 171.441Z" fill="#2F2E41"/>
<path d="M146.59 172.378L143.4 172.377L141.883 160.074L146.591 160.074L146.59 172.378Z" fill="#FFB6B6"/>
<path d="M146.7 175.705L136.891 175.705V175.581C136.891 174.568 137.293 173.597 138.009 172.881C138.725 172.165 139.696 171.763 140.709 171.763H140.709L142.501 170.404L145.844 171.763L146.7 171.763L146.7 175.705Z" fill="#2F2E41"/>
<path d="M143.427 115.315L139.772 140.522L140.766 143.838L139.461 146.187L141.378 163.867L140.6 165.58L142.774 166.921H147.198L147.432 148.245L148.525 145.503V143.992L150.75 132.604L151.263 150.332L151.973 151.702C154.619 157.704 158.182 159.67 160.702 164.156L165.126 161.76L165.033 159.973C165.922 159.523 163.699 158.207 163.485 157.234L163.098 155.492L160.517 150.147L160.419 148.264L161.125 135.46L160.793 118.217L154.99 113.78L143.427 115.315Z" fill="#2F2E41"/>
<path d="M149.17 84.7412C152.344 84.7412 154.917 82.1679 154.917 78.9936C154.917 75.8193 152.344 73.246 149.17 73.246C145.995 73.246 143.422 75.8193 143.422 78.9936C143.422 82.1679 145.995 84.7412 149.17 84.7412Z" fill="#FFB6B6"/>
<path d="M140.678 126.189L140.594 126.16L141.706 122.544C141.56 122.078 141.532 121.583 141.625 121.104C141.718 120.625 141.928 120.176 142.237 119.798C142.057 119.487 141.316 118.016 142.524 116.767C142.451 116.402 142.088 114.246 143.356 113.192C143.356 113.192 145.816 94.5491 147.195 89.625C147.235 89.2647 146.912 86.3233 148.768 86.208C149.746 86.1472 151.215 86.0542 153.419 85.9121C153.704 85.8917 153.871 86.3725 154.123 87.155C154.294 87.6845 153.414 88.408 153.627 88.396L153.642 88.395L153.657 88.3989C155.713 88.9501 157.516 90.1925 158.764 91.9171C160.012 93.6417 160.628 95.7433 160.509 97.8686L159.853 109.008C159.953 109.456 162.04 122.158 161.494 123.522C161.185 124.296 161.712 124.777 162.097 125.129C162.296 125.311 162.439 125.441 162.419 125.585C162.411 125.624 162.393 125.661 162.367 125.691C162.341 125.722 162.308 125.746 162.271 125.76C161.922 125.934 162.115 127.129 162.318 127.842L162.339 127.915L162.271 127.949C162.194 127.989 155.957 125.128 148.379 125.128C145.523 125.128 143.873 127.303 140.678 126.189Z" fill="#6C63FF"/>
<path d="M153.727 82.5274C153.668 82.4967 153.615 82.4538 153.573 82.4014C153.531 82.349 153.5 82.2884 153.483 82.2235L153.401 81.8898L153.653 82.1523C153.788 82.0407 153.891 81.8956 153.952 81.7315C154.013 81.5675 154.029 81.3903 154 81.2178C153.97 81.0454 153.895 80.8837 153.784 80.7493C153.672 80.6148 153.526 80.5122 153.362 80.4519C153.251 80.4149 153.137 80.3873 153.022 80.3693C152.901 80.35 152.782 80.3212 152.666 80.2834C152.394 80.1658 152.159 79.976 151.988 79.7346C151.816 79.4932 151.714 79.2095 151.692 78.914C151.654 78.3931 151.712 77.8697 151.862 77.3695C149.326 77.7591 146.74 77.6813 144.232 77.1401C143.845 77.0586 143.475 76.913 143.137 76.7094C142.517 76.3421 142.001 75.8233 141.638 75.2016C141.59 75.1178 141.57 75.0208 141.581 74.9248C141.592 74.8288 141.634 74.7389 141.699 74.6682C141.745 74.6188 141.801 74.5794 141.862 74.5522C141.924 74.5251 141.99 74.5109 142.058 74.5105L141.966 74.262C141.937 74.1843 141.929 74.1004 141.944 74.0189C141.958 73.9374 141.994 73.8611 142.047 73.7978C142.1 73.7345 142.17 73.6865 142.248 73.6587C142.326 73.6309 142.409 73.6242 142.491 73.6394L142.816 73.7002L142.785 73.4841C142.773 73.4036 142.783 73.3214 142.813 73.2456C142.842 73.1699 142.891 73.1032 142.955 73.0522C143.018 73.0011 143.094 72.9676 143.174 72.9547C143.255 72.9418 143.337 72.9501 143.413 72.9788C143.483 73.0051 143.558 73.0159 143.632 73.0105C143.706 73.0051 143.779 72.9837 143.844 72.9477C143.909 72.9116 143.966 72.8619 144.01 72.8019C144.054 72.7418 144.085 72.6729 144.1 72.5999L144.212 72.0566L144.223 72.0278C144.774 71.111 145.831 70.4445 147.124 70.1992C148.277 69.9807 149.455 70.091 150.594 70.1977C151.077 70.2076 151.551 70.3274 151.981 70.5482C152.175 70.6603 152.335 70.8244 152.442 71.022C152.548 71.2196 152.598 71.443 152.586 71.6672C153.707 71.3224 154.91 72.0093 155.505 72.875C156.212 73.9044 156.327 75.1958 156.347 76.2059C156.396 78.5934 155.904 80.5469 154.886 82.012C154.74 82.2607 154.519 82.4569 154.255 82.5727C154.188 82.5953 154.117 82.6066 154.046 82.6063C153.935 82.6068 153.825 82.5797 153.727 82.5274Z" fill="#2F2E41"/>
<path d="M153.933 105.158L149.714 102.46C147.027 104.318 143.397 110.864 143.397 110.864L134.208 119.353C133.825 119.419 133.467 119.584 133.168 119.833C132.869 120.081 132.642 120.404 132.507 120.768C132.373 121.133 132.337 121.526 132.403 121.909C132.47 122.291 132.635 122.65 132.884 122.948C133.133 123.246 133.456 123.474 133.82 123.608C134.185 123.742 134.578 123.777 134.961 123.71C135.344 123.644 135.702 123.477 136 123.228C136.298 122.979 136.525 122.656 136.658 122.291L149.464 113.37L153.933 105.158Z" fill="#FFB6B6"/>
<path d="M153.529 106.253L156.339 99.5091L155.323 95.7824C155.121 95.0515 154.718 94.3918 154.161 93.8777C153.603 93.3636 152.913 93.0157 152.168 92.8732C151.157 92.6869 150.113 92.8914 149.247 93.4455C148.381 93.9995 147.758 94.8616 147.503 95.8576C146.734 98.8788 146.143 102.806 147.697 104.361L147.713 104.377L153.529 106.253Z" fill="#6C63FF"/>
</g>
<defs>
<clipPath id="clip0_1278_979">
<rect width="200" height="176.277" fill="white"/>
</clipPath>
</defs>
</svg>
