<svg width="20" height="20" viewBox="0 0 20 20" fill="none" xmlns="http://www.w3.org/2000/svg">
<path d="M3.8875 7.07031H5.5V8.68281C5.5 8.725 5.54219 8.75781 5.59375 8.75781H6.71875C6.77031 8.75781 6.8125 8.725 6.8125 8.68047V7.07031H8.425C8.46719 7.07031 8.5 7.02813 8.5 6.97656V5.85156C8.5 5.8 8.46719 5.75781 8.42266 5.75781H6.8125V4.14531C6.8125 4.10313 6.77031 4.07031 6.71875 4.07031H5.59375C5.54219 4.07031 5.5 4.10313 5.5 4.14531V5.75781H3.8875C3.84531 5.75781 3.8125 5.8 3.8125 5.85156V6.97656C3.8125 7.02813 3.84531 7.07031 3.8875 7.07031ZM11.575 7.07031H16.1125C16.1547 7.07031 16.1875 7.02813 16.1875 6.97656V5.85156C16.1875 5.8 16.1547 5.75781 16.1102 5.75781H11.575C11.5328 5.75781 11.5 5.8 11.5 5.85156V6.97656C11.5 7.02813 11.5328 7.07031 11.575 7.07031ZM11.575 13.2812H16.1125C16.1547 13.2812 16.1875 13.2391 16.1875 13.1875V12.0625C16.1875 12.0109 16.1547 11.9688 16.1102 11.9688H11.575C11.5328 11.9688 11.5 12.0109 11.5 12.0625V13.1875C11.5 13.2391 11.5328 13.2812 11.575 13.2812ZM11.575 15.7188H16.1125C16.1547 15.7188 16.1875 15.6766 16.1875 15.625V14.5C16.1875 14.4484 16.1547 14.4062 16.1102 14.4062H11.575C11.5328 14.4062 11.5 14.4484 11.5 14.5V15.625C11.5 15.6766 11.5328 15.7188 11.575 15.7188ZM6.98828 13.8203L8.42266 12.0648C8.52344 11.943 8.43906 11.7578 8.28437 11.7578H7.09375C7.03984 11.7578 6.98828 11.7813 6.95547 11.8258L6.15859 12.8008L5.36172 11.8258C5.34495 11.8051 5.32391 11.7884 5.30004 11.7766C5.27616 11.7649 5.25003 11.7585 5.22344 11.7578H4.03047C3.87578 11.7578 3.79141 11.943 3.89219 12.0648L5.32656 13.8203L3.85703 15.6203C3.75391 15.7422 3.83828 15.9273 3.99297 15.9273H5.18359C5.2375 15.9273 5.28906 15.9039 5.32187 15.8594L6.15391 14.8398L6.98594 15.8594C7.02109 15.9016 7.07266 15.9273 7.12422 15.9273H8.31484C8.46953 15.9273 8.55391 15.7422 8.45312 15.6203L6.98828 13.8203V13.8203ZM18.625 0.625H1.375C0.960156 0.625 0.625 0.960156 0.625 1.375V18.625C0.625 19.0398 0.960156 19.375 1.375 19.375H18.625C19.0398 19.375 19.375 19.0398 19.375 18.625V1.375C19.375 0.960156 19.0398 0.625 18.625 0.625ZM17.7812 17.7812H2.21875V2.21875H17.7812V17.7812Z" fill="black"/>
</svg>
