<svg width="24" height="24" viewBox="0 0 24 24" fill="none" xmlns="http://www.w3.org/2000/svg">
<path d="M11.3235 15.117C12.0135 15.39 12.6435 15.753 13.2105 16.2045C13.7775 16.6545 14.262 17.1795 14.6655 17.7735C15.4885 18.9721 15.9317 20.3906 15.9375 21.8445V22.5H14.625V21.843C14.6278 21.0672 14.4761 20.2987 14.1786 19.5822C13.8812 18.8657 13.444 18.2157 12.8925 17.67C12.3513 17.1364 11.7148 16.709 11.016 16.41C10.2898 16.0989 9.50808 15.9381 8.71802 15.9375C7.94225 15.9347 7.1737 16.0864 6.45722 16.3839C5.74074 16.6814 5.09069 17.1186 4.54502 17.67C4.01161 18.2114 3.58425 18.8479 3.28502 19.5465C2.97602 20.2575 2.82002 21.024 2.81252 21.843V22.5H1.50002V21.843C1.49619 20.3881 1.9403 18.9672 2.77202 17.7735C3.60047 16.5783 4.76369 15.6546 6.11552 15.1185C5.80842 14.9075 5.52877 14.6591 5.28302 14.379C5.04019 14.1033 4.83028 13.8003 4.65752 13.476C4.48545 13.152 4.35444 12.8079 4.26752 12.4515C4.17889 12.0885 4.1311 11.7167 4.12502 11.343C4.12502 10.7085 4.24502 10.113 4.48502 9.5595C4.95431 8.46288 5.82769 7.58896 6.92403 7.119C7.48963 6.87823 8.09775 6.75325 8.71246 6.75144C9.32718 6.74964 9.93602 6.87105 10.503 7.1085C11.5999 7.57814 12.4739 8.4521 12.9435 9.549C13.3319 10.4624 13.4145 11.4768 13.179 12.441C13.089 12.7965 12.957 13.1385 12.78 13.467C12.6042 13.7921 12.3945 14.0978 12.1545 14.379C11.9145 14.6595 11.637 14.904 11.3235 15.117ZM8.71802 14.625C9.16952 14.625 9.59402 14.5395 9.99002 14.37C10.7752 14.0364 11.4001 13.4109 11.733 12.6255C11.9115 12.222 12 11.7945 12 11.3445C12.0019 10.915 11.9176 10.4894 11.7519 10.0931C11.5862 9.69683 11.3426 9.33785 11.0355 9.0375C10.7318 8.74133 10.3778 8.50159 9.99002 8.3295C9.58992 8.1508 9.15621 8.05976 8.71802 8.0625C8.26802 8.0625 7.84352 8.148 7.44753 8.3175C6.65805 8.65423 6.02925 9.28303 5.69252 10.0725C5.52302 10.4685 5.43752 10.893 5.43752 11.3445C5.43752 11.7945 5.52302 12.219 5.69252 12.615C5.86502 13.011 6.09753 13.3605 6.39152 13.6605C6.69588 13.9681 7.05856 14.2118 7.45831 14.3774C7.85805 14.543 8.28683 14.6272 8.71952 14.625H8.71802ZM22.5 1.5V12H19.875L15.9375 15.9375V12H14.625V10.6875H17.25V12.7695L19.332 10.6875H21.1875V2.8125H8.06252V5.1705C7.84252 5.1983 7.62342 5.23281 7.40552 5.274C7.1821 5.31642 6.96277 5.37815 6.75002 5.4585V1.5H22.5Z" fill="black"/>
</svg>
