<svg width="24" height="24" viewBox="0 0 24 24" fill="none" xmlns="http://www.w3.org/2000/svg">
<path d="M21.2345 5.28751L12.2345 2.2875C12.0818 2.24051 11.9185 2.24051 11.7658 2.2875L2.77514 5.28751H2.75639L2.66264 5.33438H2.65327L2.55952 5.39063C2.55952 5.4 2.55014 5.4 2.54077 5.40938L2.46577 5.47501L2.40014 5.55C2.40014 5.55938 2.39077 5.55938 2.39077 5.56876L2.33452 5.65313C2.33452 5.6625 2.33452 5.6625 2.32514 5.67188L2.28764 5.75626L2.25952 5.85938V5.8875C2.25027 5.92424 2.2471 5.96224 2.25014 6V13.5C2.25014 13.6989 2.32916 13.8897 2.46981 14.0303C2.61046 14.171 2.80123 14.25 3.00014 14.25C3.19905 14.25 3.38982 14.171 3.53047 14.0303C3.67112 13.8897 3.75014 13.6989 3.75014 13.5V7.04063L6.90014 8.09063C6.30835 9.03788 5.99636 10.1331 6.00014 11.25C6.00049 12.2658 6.25872 13.2649 6.75064 14.1536C7.24255 15.0423 7.95205 15.7916 8.81264 16.3313C7.02427 17.0078 5.49751 18.2358 4.45327 19.8375C4.34683 20.0058 4.31077 20.2092 4.35285 20.4039C4.39494 20.5985 4.5118 20.7688 4.67827 20.8781C4.75996 20.9323 4.85158 20.9696 4.94782 20.9881C5.04405 21.0066 5.143 21.0057 5.23892 20.9857C5.33484 20.9656 5.42583 20.9267 5.50661 20.8713C5.58739 20.8158 5.65636 20.7448 5.70952 20.6625C6.39026 19.6139 7.32233 18.7521 8.42097 18.1555C9.51961 17.5589 10.75 17.2464 12.0001 17.2464C13.2503 17.2464 14.4807 17.5589 15.5793 18.1555C16.678 18.7521 17.61 19.6139 18.2908 20.6625C18.3592 20.7665 18.4525 20.8518 18.5622 20.9107C18.6718 20.9696 18.7944 21.0003 18.9189 21C19.0626 21.0015 19.2033 20.959 19.322 20.8781C19.4885 20.7688 19.6053 20.5985 19.6474 20.4039C19.6895 20.2092 19.6535 20.0058 19.547 19.8375C18.5028 18.2358 16.976 17.0078 15.1876 16.3313C16.0482 15.7916 16.7577 15.0423 17.2496 14.1536C17.7416 13.2649 17.9998 12.2658 18.0001 11.25C18.0039 10.1331 17.6919 9.03788 17.1001 8.09063L21.2345 6.7125C21.3846 6.66319 21.5152 6.56775 21.6078 6.43981C21.7005 6.31187 21.7503 6.15795 21.7503 6C21.7503 5.84206 21.7005 5.68814 21.6078 5.5602C21.5152 5.43226 21.3846 5.33682 21.2345 5.28751ZM16.5001 11.25C16.5001 12.4435 16.026 13.5881 15.1821 14.432C14.3382 15.2759 13.1936 15.75 12.0001 15.75C10.8067 15.75 9.66207 15.2759 8.81816 14.432C7.97425 13.5881 7.50014 12.4435 7.50014 11.25C7.50195 10.2898 7.8071 9.35463 8.37202 8.57813L11.7658 9.7125C11.918 9.76259 12.0823 9.76259 12.2345 9.7125L15.6283 8.57813C16.1932 9.35463 16.4983 10.2898 16.5001 11.25ZM15.6283 7.00313H15.6189L12.0001 8.2125L8.38139 7.00313H8.37202L5.37202 6L12.0001 3.7875L18.6283 6L15.6283 7.00313Z" fill="black"/>
</svg>
