<svg width="584" height="400" viewBox="0 0 584 400" fill="none" xmlns="http://www.w3.org/2000/svg">
<g clip-path="url(#clip0_55_1698)">
<path fill-rule="evenodd" clip-rule="evenodd" d="M252.962 269.111V251.345H275.175L294.033 232.487L320.066 243.543C329.501 247.551 340.419 245.427 347.656 238.178L384.631 201.203C391.881 193.953 393.992 183.035 389.997 173.612L371.125 129.186C368.582 123.194 363.812 118.424 357.82 115.881L313.395 97.01C308.785 95.0509 303.695 94.5149 298.778 95.4709C293.862 96.4268 289.344 98.8311 285.804 102.375L248.829 139.351C241.592 146.587 239.469 157.505 243.476 166.941L254.243 192.307L178.559 267.992V307.971H218.537L235.197 291.311V269.098H252.962V269.111Z" fill="#6C63FF"/>
<path fill-rule="evenodd" clip-rule="evenodd" d="M315.098 147.551C303.826 147.599 294.676 156.748 294.724 168.02C294.724 179.292 303.92 188.441 315.192 188.395C326.464 188.395 335.614 179.245 335.614 167.973C335.614 156.701 326.464 147.551 315.192 147.551" fill="white"/>
<path fill-rule="evenodd" clip-rule="evenodd" d="M383.647 262.03H387.649C388.112 262.03 388.557 262.215 388.884 262.542C389.212 262.87 389.396 263.314 389.396 263.777V267.779C389.396 268.243 389.212 268.687 388.884 269.014C388.556 269.342 388.112 269.526 387.649 269.526H383.647C383.184 269.524 382.741 269.34 382.414 269.012C382.087 268.685 381.902 268.242 381.9 267.779V263.777C381.892 262.817 382.68 262.03 383.647 262.03ZM397.522 262.03H401.524C401.987 262.032 402.431 262.216 402.758 262.544C403.086 262.871 403.27 263.314 403.272 263.777V267.779C403.271 268.243 403.087 268.687 402.759 269.014C402.432 269.342 401.988 269.526 401.524 269.526H397.522C397.06 269.524 396.616 269.34 396.289 269.012C395.962 268.685 395.778 268.242 395.776 267.779V263.777C395.777 263.315 395.962 262.871 396.289 262.544C396.616 262.216 397.06 262.032 397.522 262.03ZM411.408 262.03H415.41C415.873 262.032 416.316 262.216 416.643 262.544C416.97 262.871 417.155 263.315 417.156 263.777V267.779C417.156 268.747 416.37 269.526 415.41 269.526H411.408C410.945 269.524 410.502 269.34 410.175 269.012C409.847 268.685 409.663 268.242 409.661 267.779V263.777C409.652 262.817 410.44 262.03 411.408 262.03ZM425.283 262.03H429.285C429.748 262.032 430.192 262.216 430.519 262.544C430.846 262.871 431.031 263.314 431.032 263.777V267.779C431.032 268.243 430.848 268.687 430.52 269.014C430.192 269.342 429.748 269.526 429.285 269.526H425.283C424.819 269.526 424.374 269.342 424.045 269.015C423.717 268.687 423.531 268.243 423.528 267.779V263.777C423.536 262.817 424.324 262.03 425.283 262.03ZM439.16 262.03H443.162C443.627 262.03 444.072 262.214 444.4 262.542C444.729 262.869 444.915 263.313 444.917 263.777V267.779C444.917 268.009 444.871 268.237 444.782 268.449C444.694 268.661 444.565 268.854 444.402 269.016C444.239 269.178 444.045 269.307 443.833 269.394C443.62 269.482 443.392 269.527 443.162 269.526H439.16C438.697 269.524 438.254 269.34 437.927 269.012C437.599 268.685 437.415 268.242 437.413 267.779V263.777C437.415 263.315 437.599 262.871 437.926 262.544C438.254 262.216 438.697 262.032 439.16 262.03ZM398.032 277.161H402.034C402.496 277.163 402.94 277.348 403.267 277.675C403.594 278.002 403.779 278.445 403.78 278.908V282.919C403.779 283.381 403.594 283.825 403.267 284.152C402.94 284.479 402.496 284.664 402.034 284.665H398.032C397.569 284.665 397.125 284.481 396.797 284.153C396.47 283.826 396.285 283.382 396.285 282.919V278.917C396.284 278.686 396.328 278.458 396.415 278.245C396.502 278.032 396.63 277.838 396.793 277.675C396.955 277.512 397.148 277.383 397.361 277.294C397.574 277.206 397.802 277.161 398.032 277.161ZM411.907 277.161H415.909C416.372 277.163 416.815 277.347 417.143 277.675C417.47 278.002 417.655 278.445 417.656 278.908V282.919C417.655 283.381 417.47 283.825 417.143 284.152C416.815 284.479 416.372 284.664 415.909 284.665H411.907C411.444 284.664 411.001 284.479 410.674 284.152C410.347 283.825 410.162 283.381 410.16 282.919V278.917C410.159 278.687 410.203 278.458 410.291 278.245C410.378 278.032 410.506 277.839 410.669 277.676C410.831 277.512 411.024 277.383 411.236 277.295C411.449 277.206 411.677 277.161 411.907 277.161ZM425.784 277.161H429.786C430.25 277.161 430.695 277.345 431.024 277.672C431.353 278 431.539 278.444 431.541 278.908V282.919C431.539 283.383 431.353 283.827 431.024 284.154C430.695 284.482 430.25 284.665 429.786 284.665H425.784C425.321 284.664 424.878 284.479 424.551 284.152C424.223 283.825 424.039 283.381 424.037 282.919V278.917C424.037 278.453 424.221 278.007 424.548 277.679C424.875 277.35 425.32 277.164 425.784 277.161ZM411.408 245.776H415.41C416.37 245.776 417.156 246.563 417.156 247.523V251.525C417.156 252.493 416.37 253.271 415.41 253.271H411.408C410.945 253.27 410.502 253.085 410.175 252.758C409.847 252.431 409.663 251.987 409.661 251.525V247.523C409.652 246.563 410.44 245.776 411.408 245.776ZM425.283 245.776H429.285C429.748 245.778 430.191 245.962 430.519 246.289C430.846 246.616 431.031 247.06 431.032 247.523V251.525C431.032 251.988 430.848 252.432 430.52 252.76C430.193 253.087 429.748 253.271 429.285 253.271H425.283C424.819 253.271 424.374 253.087 424.045 252.76C423.717 252.433 423.531 251.989 423.528 251.525V247.523C423.533 247.06 423.72 246.617 424.048 246.29C424.376 245.963 424.82 245.779 425.283 245.776Z" fill="#E1E4E5"/>
<path d="M463.528 215.457C448.237 219.08 432.063 206.112 432.063 206.112C432.063 206.112 440.694 187.277 455.991 183.666C471.282 180.043 487.45 193.001 487.45 193.001C487.45 193.001 478.819 211.835 463.528 215.457Z" fill="url(#paint0_linear_55_1698)"/>
<path d="M92.41 251.023C77.1186 254.645 60.9453 241.677 60.9453 241.677C60.9453 241.677 69.576 222.843 84.8726 219.231C100.164 215.609 116.332 228.566 116.332 228.566C116.332 228.566 107.701 247.401 92.41 251.023Z" fill="url(#paint1_linear_55_1698)"/>
<path d="M208.286 112.581C227.446 108.707 238.96 85.634 238.96 85.634C238.96 85.634 219.399 68.854 200.239 72.7427C181.079 76.616 169.565 99.674 169.565 99.674C169.565 99.674 189.125 116.454 208.286 112.581Z" fill="url(#paint2_linear_55_1698)"/>
<path d="M450.538 127.482C443.375 127.482 437.568 133.036 437.568 139.888C437.568 146.74 443.375 152.294 450.538 152.294C457.701 152.294 463.508 146.74 463.508 139.888C463.508 133.036 457.701 127.482 450.538 127.482Z" fill="#6C63FF"/>
<path d="M254.796 317.749C248.56 317.749 243.505 322.804 243.505 329.04C243.505 335.276 248.56 340.331 254.796 340.331C261.032 340.331 266.087 335.276 266.087 329.04C266.087 322.804 261.032 317.749 254.796 317.749Z" fill="#6C63FF"/>
<path d="M155.124 152.259C151.698 152.259 148.92 149.481 148.92 146.055C148.92 142.629 151.698 139.852 155.124 139.852C158.55 139.852 161.327 142.629 161.327 146.055C161.327 149.481 158.55 152.259 155.124 152.259Z" fill="#6C63FF"/>
<path d="M331.255 326.958C325.704 326.958 321.204 322.631 321.204 317.293C321.204 311.956 325.704 307.629 331.255 307.629C336.807 307.629 341.307 311.956 341.307 317.293C341.307 322.631 336.807 326.958 331.255 326.958Z" fill="#E1E4E5"/>
<path d="M178.21 207.965C174.559 207.965 171.6 205.006 171.6 201.356C171.6 197.706 174.559 194.747 178.21 194.747C181.86 194.747 184.819 197.706 184.819 201.356C184.819 205.006 181.86 207.965 178.21 207.965Z" fill="#E1E4E5"/>
<path d="M391.175 351.699C387.973 351.699 385.377 348.929 385.377 345.513C385.377 342.097 387.973 339.328 391.175 339.328C394.378 339.328 396.974 342.097 396.974 345.513C396.974 348.929 394.378 351.699 391.175 351.699Z" fill="#E1E4E5"/>
<path d="M334.965 59.1247C331.85 59.1247 329.325 56.5998 329.325 53.4853C329.325 50.3708 331.85 47.846 334.965 47.846C338.079 47.846 340.604 50.3708 340.604 53.4853C340.604 56.5998 338.079 59.1247 334.965 59.1247Z" fill="#E1E4E5"/>
<path d="M140.777 282.626C141.564 285.566 139.82 288.588 136.88 289.375C133.94 290.163 130.919 288.419 130.131 285.479C129.343 282.539 131.088 279.517 134.027 278.73C136.967 277.942 139.989 279.687 140.777 282.626Z" fill="#E1E4E5"/>
<path d="M403.932 83.6651C405.571 89.7833 401.94 96.072 395.822 97.7113C389.704 99.3507 383.415 95.7199 381.776 89.6018C380.137 83.4836 383.767 77.1949 389.885 75.5556C396.004 73.9162 402.292 77.547 403.932 83.6651Z" fill="#E1E4E5"/>
</g>
<defs>
<linearGradient id="paint0_linear_55_1698" x1="405.945" y1="224.464" x2="539.805" y2="161.224" gradientUnits="userSpaceOnUse">
<stop stop-color="white"/>
<stop offset="1" stop-color="#EEEEEE"/>
</linearGradient>
<linearGradient id="paint1_linear_55_1698" x1="34.8266" y1="260.03" x2="168.687" y2="196.789" gradientUnits="userSpaceOnUse">
<stop stop-color="white"/>
<stop offset="1" stop-color="#EEEEEE"/>
</linearGradient>
<linearGradient id="paint2_linear_55_1698" x1="278.024" y1="92.7593" x2="93.8721" y2="91.0513" gradientUnits="userSpaceOnUse">
<stop stop-color="white"/>
<stop offset="1" stop-color="#EEEEEE"/>
</linearGradient>
<clipPath id="clip0_55_1698">
<rect width="600" height="400" fill="white" transform="translate(-8)"/>
</clipPath>
</defs>
</svg>
