<svg width="130" height="127" viewBox="0 0 130 127" fill="none" xmlns="http://www.w3.org/2000/svg">
<g clip-path="url(#clip0_1075_2315)">
<path d="M82.5288 28.5385H47.4994C46.7012 28.5395 45.9359 28.857 45.3714 29.4215C44.807 29.9859 44.4894 30.7512 44.4885 31.5495V109.403L44.087 109.525L35.4937 112.157C35.0865 112.281 34.6466 112.238 34.2707 112.038C33.8947 111.839 33.6134 111.498 33.4885 111.091L7.92749 27.5971C7.8031 27.1898 7.8455 26.7499 8.04537 26.3738C8.24523 25.9978 8.58622 25.7165 8.99338 25.5918L22.2356 21.5371L60.6252 9.78634L73.8673 5.73159C74.0688 5.66957 74.2806 5.6479 74.4905 5.66781C74.7004 5.68773 74.9043 5.74885 75.0906 5.84766C75.2768 5.94648 75.4418 6.08105 75.576 6.24369C75.7102 6.40632 75.811 6.59383 75.8726 6.79546L82.4063 28.1371L82.5288 28.5385Z" fill="#F2F2F2"/>
<path d="M90.1739 28.1372L82.2993 2.41563C82.1683 1.98706 81.9541 1.5885 81.669 1.24274C81.3839 0.896979 81.0335 0.610785 80.6377 0.400512C80.242 0.190239 79.8086 0.0600064 79.3625 0.0172612C78.9164 -0.025484 78.4663 0.0200958 78.0378 0.151392L59.4201 5.85012L21.0326 17.6029L2.41485 23.3036C1.54997 23.5692 0.825798 24.167 0.401282 24.966C-0.0232338 25.765 -0.113407 26.6997 0.15056 27.5651L27.0644 115.471C27.2789 116.169 27.7116 116.781 28.299 117.215C28.8864 117.65 29.5977 117.885 30.3284 117.886C30.6666 117.886 31.0029 117.835 31.3259 117.735L44.0884 113.829L44.4898 113.704V113.285L44.0884 113.407L31.2075 117.352C30.4441 117.584 29.6196 117.505 28.9148 117.13C28.2099 116.756 27.6824 116.117 27.4479 115.354L0.536043 27.4467C0.419839 27.0687 0.379338 26.6715 0.41686 26.2778C0.454381 25.8841 0.569185 25.5017 0.754704 25.1525C0.940222 24.8033 1.19281 24.4941 1.498 24.2426C1.80319 23.9911 2.15499 23.8023 2.53325 23.687L21.151 17.9863L59.5386 6.23552L78.1563 0.53479C78.4432 0.447231 78.7415 0.402587 79.0415 0.402307C79.6852 0.403753 80.3116 0.611299 80.8289 0.994546C81.3461 1.37779 81.7271 1.9166 81.916 2.53205L89.7544 28.1372L89.8789 28.5386H90.2964L90.1739 28.1372Z" fill="#3F3D56"/>
<path d="M24.6256 25.6575C24.2388 25.6572 23.8621 25.5329 23.551 25.3029C23.24 25.0729 23.0108 24.7493 22.8971 24.3795L20.3116 15.9344C20.2421 15.7076 20.218 15.4693 20.2407 15.2331C20.2633 14.9969 20.3322 14.7675 20.4435 14.558C20.5548 14.3485 20.7063 14.1629 20.8894 14.012C21.0724 13.861 21.2833 13.7476 21.5102 13.6782L56.8264 2.86609C57.2846 2.72629 57.7795 2.77397 58.2025 2.99867C58.6255 3.22336 58.9421 3.60672 59.0828 4.06459L61.6683 12.5098C61.808 12.9679 61.7603 13.4627 61.5356 13.8857C61.3109 14.3088 60.9276 14.6254 60.4698 14.7661L25.1534 25.5782C24.9824 25.6307 24.8045 25.6574 24.6256 25.6575Z" fill="#6C63FF"/>
<path d="M38.1689 9.02383C40.3861 9.02383 42.1835 7.22643 42.1835 5.00923C42.1835 2.79203 40.3861 0.994629 38.1689 0.994629C35.9517 0.994629 34.1543 2.79203 34.1543 5.00923C34.1543 7.22643 35.9517 9.02383 38.1689 9.02383Z" fill="#6C63FF"/>
<path d="M38.1691 7.55138C39.5731 7.55138 40.7113 6.41321 40.7113 5.00921C40.7113 3.60521 39.5731 2.46704 38.1691 2.46704C36.7651 2.46704 35.627 3.60521 35.627 5.00921C35.627 6.41321 36.7651 7.55138 38.1691 7.55138Z" fill="white"/>
<path d="M120.967 116.86H53.1203C52.6679 116.859 52.2342 116.679 51.9144 116.359C51.5945 116.039 51.4146 115.606 51.4141 115.153V33.8578C51.4146 33.4055 51.5945 32.9718 51.9144 32.6519C52.2342 32.332 52.6679 32.1521 53.1203 32.1516H120.967C121.419 32.1521 121.853 32.3321 122.173 32.6519C122.493 32.9718 122.673 33.4055 122.673 33.8578V115.153C122.673 115.606 122.493 116.039 122.173 116.359C121.853 116.679 121.419 116.859 120.967 116.86Z" fill="#E6E6E6"/>
<path d="M89.754 28.1372H47.5003C46.5957 28.1385 45.7285 28.4984 45.0888 29.1381C44.4491 29.7778 44.0892 30.645 44.0879 31.5496V113.407L44.4894 113.285V31.5496C44.4903 30.7514 44.8079 29.9861 45.3723 29.4216C45.9368 28.8572 46.702 28.5396 47.5003 28.5387H89.8784L89.754 28.1372ZM126.588 28.1372H47.5003C46.5957 28.1385 45.7285 28.4984 45.0888 29.1381C44.4491 29.7778 44.0892 30.645 44.0879 31.5496V123.484C44.0892 124.389 44.4491 125.256 45.0888 125.895C45.7285 126.535 46.5957 126.895 47.5003 126.896H126.588C127.493 126.895 128.36 126.535 128.999 125.895C129.639 125.256 129.999 124.389 130 123.484V31.5496C129.999 30.645 129.639 29.7778 128.999 29.1381C128.36 28.4984 127.493 28.1385 126.588 28.1372ZM129.599 123.484C129.598 124.282 129.28 125.047 128.716 125.612C128.151 126.176 127.386 126.494 126.588 126.495H47.5003C46.702 126.494 45.9368 126.176 45.3723 125.612C44.8079 125.047 44.4903 124.282 44.4894 123.484V31.5496C44.4903 30.7514 44.8079 29.9861 45.3723 29.4216C45.9368 28.8572 46.702 28.5396 47.5003 28.5387H126.588C127.386 28.5396 128.151 28.8572 128.716 29.4216C129.28 29.9861 129.598 30.7514 129.599 31.5496V123.484Z" fill="#3F3D56"/>
<path d="M105.51 36.9692H68.5761C68.0971 36.9686 67.6379 36.7781 67.2993 36.4395C66.9606 36.1008 66.7701 35.6416 66.7695 35.1626V26.3305C66.7701 25.8515 66.9606 25.3923 67.2993 25.0537C67.6379 24.715 68.0971 24.5245 68.5761 24.5239H105.51C105.989 24.5245 106.449 24.715 106.787 25.0537C107.126 25.3923 107.316 25.8515 107.317 26.3305V35.1626C107.316 35.6416 107.126 36.1008 106.787 36.4395C106.449 36.7781 105.989 36.9686 105.51 36.9692Z" fill="#6C63FF"/>
<path d="M87.0439 25.1261C89.2611 25.1261 91.0585 23.3287 91.0585 21.1115C91.0585 18.8943 89.2611 17.0969 87.0439 17.0969C84.8267 17.0969 83.0293 18.8943 83.0293 21.1115C83.0293 23.3287 84.8267 25.1261 87.0439 25.1261Z" fill="#6C63FF"/>
<path d="M87.0429 23.5568C88.3934 23.5568 89.4882 22.462 89.4882 21.1115C89.4882 19.761 88.3934 18.6663 87.0429 18.6663C85.6924 18.6663 84.5977 19.761 84.5977 21.1115C84.5977 22.462 85.6924 23.5568 87.0429 23.5568Z" fill="white"/>
</g>
<defs>
<clipPath id="clip0_1075_2315">
<rect width="130" height="126.896" fill="white"/>
</clipPath>
</defs>
</svg>
