<svg width="458" height="321" viewBox="0 0 458 321" fill="none" xmlns="http://www.w3.org/2000/svg">
<g clip-path="url(#clip0_55_348)" filter="url(#filter0_d_55_348)">
<path d="M29.4912 53.0413L17.8035 64.729L28.7086 75.6341L40.3963 63.9464L29.4912 53.0413Z" fill="#E1E6FB"/>
<path d="M42.4009 66.8835L30.7132 78.5712L41.6182 89.4763L53.3059 77.7885L42.4009 66.8835Z" fill="#E1E6FB"/>
<path d="M45.1663 39.2081L33.4786 50.8958L44.3836 61.8009L56.0713 50.1132L45.1663 39.2081Z" fill="#E1E6FB"/>
<path d="M414.123 238.443L402.435 250.131L413.34 261.036L425.028 249.348L414.123 238.443Z" fill="#E1E6FB"/>
<path d="M427.032 252.276L415.345 263.964L426.25 274.869L437.937 263.181L427.032 252.276Z" fill="#E1E6FB"/>
<path d="M413.197 266.114L401.509 277.802L412.414 288.707L424.102 277.019L413.197 266.114Z" fill="#E1E6FB"/>
<path d="M231.633 1.90735e-06H119.104V58.1095H231.633V1.90735e-06Z" fill="#BAC5F4"/>
<path d="M94.1998 217.68H51.7706V311.762H94.1998V217.68Z" fill="#E1E6FB"/>
<path d="M72.0628 225.981C72.0628 225.981 35.1679 166.027 33.3232 150.347C31.4784 134.667 29.6337 129.132 29.6337 129.132C29.6337 129.132 40.7021 127.288 44.3916 135.589C48.0811 143.89 59.1496 133.744 62.8391 155.881C62.8391 155.881 63.7615 166.95 72.0628 163.26C80.3642 159.571 72.0628 225.981 72.0628 225.981Z" fill="#E1E6FB"/>
<path d="M76.6747 235.205C76.6747 235.205 50.3317 186.319 41.6245 166.95C35.1679 152.579 29.6337 129.132 29.6337 129.132C29.6337 129.132 18.5099 133.209 19.4876 142.045C20.41 150.347 12.1086 153.114 13.9534 163.26C15.9457 174.236 31.8105 176.293 22.2547 186.319C16.453 192.398 20.8066 202.775 25.0218 209.379C27.7244 213.603 41.0527 217.449 37.9351 215.835C30.7959 212.146 76.6747 235.205 76.6747 235.205Z" fill="#BAC5F4"/>
<path d="M59.9635 194.212C60.889 193.786 57.1492 183.687 51.6104 171.656C46.0717 159.625 40.8314 150.218 39.906 150.644C38.9805 151.07 42.7203 161.168 48.2591 173.199C53.7978 185.23 59.0381 194.638 59.9635 194.212Z" fill="#BAC5F4"/>
<path d="M84.598 265.173C84.598 265.173 28.4254 222.744 21.0095 208.807C13.5937 194.87 9.85803 190.359 9.85803 190.359C9.85803 190.359 19.4968 184.613 25.9535 191.005C32.4101 197.397 39.0327 183.921 50.5163 203.199C50.5163 203.199 51.7799 216.73 60.0813 213.963C68.687 211.122 84.598 265.173 84.598 265.173Z" fill="#E1E6FB"/>
<path d="M92.2444 272.1C92.2444 272.1 49.9259 236.128 34.7713 221.25C23.5276 210.181 9.86723 190.378 9.86723 190.378C9.86723 190.378 0.984742 198.227 5.10775 206.058C8.98172 213.437 2.25764 219.054 7.67197 227.835C13.5198 237.336 29.0526 233.48 23.795 246.283C20.6036 254.058 28.4069 262.138 34.7621 266.76C38.8113 269.711 52.6285 268.448 49.1419 268.079C41.1172 267.295 92.2444 272.1 92.2444 272.1Z" fill="#F8F8FF"/>
<path d="M56.2076 251.153C56.9149 250.419 49.7594 242.371 40.2256 233.178C30.6917 223.984 22.3896 217.125 21.6824 217.858C20.9752 218.592 28.1306 226.639 37.6645 235.833C47.1984 245.027 55.5004 251.886 56.2076 251.153Z" fill="#E1E6FB"/>
<path d="M377.368 152.275C377.368 152.275 421.218 80.9752 424.031 61.9835C426.844 42.9918 429.169 36.3323 429.169 36.3323C429.169 36.3323 416.994 33.5652 412.492 43.5268C407.991 53.4884 396.231 40.6213 391.047 67.3886C391.047 67.3886 389.479 80.8183 380.458 75.9574C371.438 71.0965 377.368 152.275 377.368 152.275Z" fill="#E1E6FB"/>
<path d="M371.834 163.26C371.834 163.26 403.444 104.957 414.042 81.7776C421.91 64.5754 429.196 36.2954 429.196 36.2954C429.196 36.2954 441.326 41.7651 439.804 52.4646C438.374 62.5277 447.432 66.3002 444.886 78.5309C442.119 91.7946 424.446 93.584 434.546 106.202C440.671 113.867 435.34 126.291 430.34 134.141C427.14 139.158 412.179 143.235 415.711 141.418C423.782 137.295 371.834 163.26 371.834 163.26Z" fill="#BAC5F4"/>
<path d="M402.724 87.155C395.991 101.544 391.352 113.664 392.357 114.227C393.362 114.789 399.634 103.573 406.368 89.1843C413.101 74.7952 417.741 62.6753 416.735 62.1126C415.73 61.55 409.448 72.7568 402.724 87.155Z" fill="#BAC5F4"/>
<path d="M361.54 199.399C361.54 199.399 425.885 150.291 434.795 133.67C443.705 117.049 448.059 111.755 448.059 111.755C448.059 111.755 437.664 104.376 430.193 111.819C422.721 119.263 416.053 102.596 402.374 125.553C402.374 125.553 400.308 141.962 391.241 138.218C381.842 134.334 361.54 199.399 361.54 199.399Z" fill="#F8F8FF"/>
<path d="M352.723 207.469C352.723 207.469 401.396 165.612 418.921 148.198C431.927 135.284 448.059 111.755 448.059 111.755C448.059 111.755 457.513 121.707 452.551 131.125C447.884 139.952 455.069 147.063 448.64 157.504C441.686 168.794 424.659 163.417 429.87 179.245C433.024 188.847 423.948 198.338 416.708 203.669C412.096 207.082 396.831 204.914 400.714 204.592C409.652 203.937 352.723 207.469 352.723 207.469Z" fill="#E1E6FB"/>
<path d="M417.381 158.796C406.829 170.012 398.933 179.835 399.708 180.73C400.483 181.625 409.679 173.249 420.231 162.024C430.783 150.799 438.679 140.985 437.904 140.09C437.129 139.195 427.933 147.58 417.381 158.796Z" fill="white"/>
<path d="M172.602 217.68H101.579V311.762H172.602V217.68Z" fill="#BAC5F4"/>
<path d="M327.56 218.602H256.537V312.685H327.56V218.602Z" fill="#E1E6FB"/>
<path d="M284.209 1.90735e-06H238.09V59.0319H284.209V1.90735e-06Z" fill="#E1E6FB"/>
<path d="M391.204 48.8858H69.2957V285.936H391.204V48.8858Z" fill="#BAC5F4"/>
<path d="M391.204 48.8858H77.5971V285.936H391.204V48.8858Z" fill="#F8F8FF"/>
<path d="M387.514 52.5753H80.3642V69.178H387.514V52.5753Z" fill="white"/>
<path d="M387.514 68.2556H80.3642V282.246H387.514V68.2556Z" fill="#E1E6FB"/>
<path d="M168.912 76.557H131.095V118.986H168.912V76.557Z" fill="#6C63FF"/>
<path d="M211.341 76.557H173.524V118.986H211.341V76.557Z" fill="#6C63FF"/>
<path d="M252.848 76.557H215.031V118.986H252.848V76.557Z" fill="#6C63FF"/>
<path d="M295.277 76.557H257.46V118.986H295.277V76.557Z" fill="white"/>
<path d="M336.784 76.557H298.967V118.986H336.784V76.557Z" fill="white"/>
<path d="M379.213 76.557H341.396V118.986H379.213V76.557Z" fill="white"/>
<path d="M168.912 125.443H131.095V167.872H168.912V125.443Z" fill="white"/>
<path d="M211.341 125.443H173.524V167.872H211.341V125.443Z" fill="white"/>
<path d="M252.848 125.443H215.031V167.872H252.848V125.443Z" fill="#F8F8FF"/>
<path d="M295.277 125.443H257.46V167.872H295.277V125.443Z" fill="white"/>
<path d="M336.784 125.443H298.967V167.872H336.784V125.443Z" fill="white"/>
<path d="M379.213 125.443H341.396V167.872H379.213V125.443Z" fill="white"/>
<path d="M168.912 172.484H131.095V214.913H168.912V172.484Z" fill="white"/>
<path d="M211.341 172.484H173.524V214.913H211.341V172.484Z" fill="white"/>
<path d="M252.848 172.484H215.031V214.913H252.848V172.484Z" fill="#F8F8FF"/>
<path d="M295.277 172.484H257.46V214.913H295.277V172.484Z" fill="white"/>
<path d="M336.784 172.484H298.967V214.913H336.784V172.484Z" fill="#F8F8FF"/>
<path d="M379.213 172.484H341.396V214.913H379.213V172.484Z" fill="white"/>
<path d="M169.834 220.447H132.017V262.876H169.834V220.447Z" fill="#F8F8FF"/>
<path d="M212.264 220.447H174.446V262.876H212.264V220.447Z" fill="#F8F8FF"/>
<path d="M253.77 220.447H215.953V262.876H253.77V220.447Z" fill="white"/>
<path d="M296.2 220.447H258.382V262.876H296.2V220.447Z" fill="white"/>
<path d="M337.706 220.447H299.889V262.876H337.706V220.447Z" fill="#6C63FF"/>
<path d="M380.135 220.447H342.318V262.876H380.135V220.447Z" fill="white"/>
<path d="M89.1267 64.5661C90.9097 64.5661 92.3551 63.1208 92.3551 61.3378C92.3551 59.5549 90.9097 58.1095 89.1267 58.1095C87.3438 58.1095 85.8984 59.5549 85.8984 61.3378C85.8984 63.1208 87.3438 64.5661 89.1267 64.5661Z" fill="#6C63FF"/>
<path d="M99.2729 64.5661C101.056 64.5661 102.501 63.1208 102.501 61.3378C102.501 59.5549 101.056 58.1095 99.2729 58.1095C97.4899 58.1095 96.0446 59.5549 96.0446 61.3378C96.0446 63.1208 97.4899 64.5661 99.2729 64.5661Z" fill="#6C63FF"/>
<path d="M109.419 64.5661C111.202 64.5661 112.647 63.1208 112.647 61.3378C112.647 59.5549 111.202 58.1095 109.419 58.1095C107.636 58.1095 106.191 59.5549 106.191 61.3378C106.191 63.1208 107.636 64.5661 109.419 64.5661Z" fill="#6C63FF"/>
<path d="M119.565 124.52H93.7386C91.4463 124.52 89.588 126.379 89.588 128.671C89.588 130.963 91.4463 132.822 93.7386 132.822H119.565C121.857 132.822 123.716 130.963 123.716 128.671C123.716 126.379 121.857 124.52 119.565 124.52Z" fill="white"/>
<path d="M119.565 172.484H93.7386C91.4463 172.484 89.588 174.342 89.588 176.634C89.588 178.927 91.4463 180.785 93.7386 180.785H119.565C121.857 180.785 123.716 178.927 123.716 176.634C123.716 174.342 121.857 172.484 119.565 172.484Z" fill="white"/>
<path d="M119.565 220.447H93.7386C91.4463 220.447 89.588 222.306 89.588 224.598C89.588 226.89 91.4463 228.749 93.7386 228.749H119.565C121.857 228.749 123.716 226.89 123.716 224.598C123.716 222.306 121.857 220.447 119.565 220.447Z" fill="white"/>
<path d="M152.77 128.21H138.012C136.23 128.21 134.784 129.655 134.784 131.438C134.784 133.221 136.23 134.666 138.012 134.666H152.77C154.553 134.666 155.999 133.221 155.999 131.438C155.999 129.655 154.553 128.21 152.77 128.21Z" fill="#6C63FF"/>
<path d="M143.547 140.201H137.09C135.817 140.201 134.784 141.233 134.784 142.507C134.784 143.78 135.817 144.813 137.09 144.813H143.547C144.82 144.813 145.853 143.78 145.853 142.507C145.853 141.233 144.82 140.201 143.547 140.201Z" fill="#6C63FF"/>
<path d="M195.661 128.21H180.903C179.375 128.21 178.136 129.449 178.136 130.977C178.136 132.505 179.375 133.744 180.903 133.744H195.661C197.189 133.744 198.428 132.505 198.428 130.977C198.428 129.449 197.189 128.21 195.661 128.21Z" fill="#6C63FF"/>
<path d="M321.104 226.904H306.346C304.817 226.904 303.578 228.143 303.578 229.671C303.578 231.199 304.817 232.438 306.346 232.438H321.104C322.632 232.438 323.871 231.199 323.871 229.671C323.871 228.143 322.632 226.904 321.104 226.904Z" fill="white"/>
<path d="M362.61 177.096H347.852C346.324 177.096 345.085 178.335 345.085 179.863C345.085 181.391 346.324 182.63 347.852 182.63H362.61C364.139 182.63 365.378 181.391 365.378 179.863C365.378 178.335 364.139 177.096 362.61 177.096Z" fill="#F5F5FC"/>
<path d="M361.688 129.132H346.93C345.402 129.132 344.163 130.371 344.163 131.899C344.163 133.428 345.402 134.666 346.93 134.666H361.688C363.216 134.666 364.455 133.428 364.455 131.899C364.455 130.371 363.216 129.132 361.688 129.132Z" fill="#F5F5FC"/>
<path d="M320.181 129.132H305.423C303.895 129.132 302.656 130.371 302.656 131.899C302.656 133.428 303.895 134.666 305.423 134.666H320.181C321.709 134.666 322.948 133.428 322.948 131.899C322.948 130.371 321.709 129.132 320.181 129.132Z" fill="#F5F5FC"/>
<path d="M181.825 144.813C183.863 144.813 185.515 143.161 185.515 141.123C185.515 139.085 183.863 137.434 181.825 137.434C179.788 137.434 178.136 139.085 178.136 141.123C178.136 143.161 179.788 144.813 181.825 144.813Z" fill="#6C63FF"/>
<path d="M265.761 138.356C267.799 138.356 269.451 136.704 269.451 134.666C269.451 132.629 267.799 130.977 265.761 130.977C263.724 130.977 262.072 132.629 262.072 134.666C262.072 136.704 263.724 138.356 265.761 138.356Z" fill="#6C63FF"/>
<path d="M278.674 138.356C280.712 138.356 282.364 136.704 282.364 134.666C282.364 132.629 280.712 130.977 278.674 130.977C276.637 130.977 274.985 132.629 274.985 134.666C274.985 136.704 276.637 138.356 278.674 138.356Z" fill="#6C63FF"/>
<path d="M278.674 184.475C280.712 184.475 282.364 182.823 282.364 180.785C282.364 178.748 280.712 177.096 278.674 177.096C276.637 177.096 274.985 178.748 274.985 180.785C274.985 182.823 276.637 184.475 278.674 184.475Z" fill="#6C63FF"/>
<path d="M265.761 184.475C267.799 184.475 269.451 182.823 269.451 180.785C269.451 178.748 267.799 177.096 265.761 177.096C263.724 177.096 262.072 178.748 262.072 180.785C262.072 182.823 263.724 184.475 265.761 184.475Z" fill="#6C63FF"/>
<path d="M277.752 231.516C279.79 231.516 281.441 229.864 281.441 227.826C281.441 225.789 279.79 224.137 277.752 224.137C275.714 224.137 274.062 225.789 274.062 227.826C274.062 229.864 275.714 231.516 277.752 231.516Z" fill="#6C63FF"/>
<path d="M264.839 231.516C266.877 231.516 268.528 229.864 268.528 227.826C268.528 225.789 266.877 224.137 264.839 224.137C262.801 224.137 261.149 225.789 261.149 227.826C261.149 229.864 262.801 231.516 264.839 231.516Z" fill="#6C63FF"/>
<path d="M152.309 232.438C154.347 232.438 155.999 230.786 155.999 228.749C155.999 226.711 154.347 225.059 152.309 225.059C150.272 225.059 148.62 226.711 148.62 228.749C148.62 230.786 150.272 232.438 152.309 232.438Z" fill="#6C63FF"/>
<path d="M139.396 232.438C141.434 232.438 143.086 230.786 143.086 228.749C143.086 226.711 141.434 225.059 139.396 225.059C137.358 225.059 135.707 226.711 135.707 228.749C135.707 230.786 137.358 232.438 139.396 232.438Z" fill="#6C63FF"/>
<path d="M265.761 88.5478C267.799 88.5478 269.451 86.896 269.451 84.8583C269.451 82.8207 267.799 81.1688 265.761 81.1688C263.724 81.1688 262.072 82.8207 262.072 84.8583C262.072 86.896 263.724 88.5478 265.761 88.5478Z" fill="#6C63FF"/>
<path d="M222.41 88.5478C224.447 88.5478 226.099 86.896 226.099 84.8583C226.099 82.8207 224.447 81.1688 222.41 81.1688C220.372 81.1688 218.72 82.8207 218.72 84.8583C218.72 86.896 220.372 88.5478 222.41 88.5478Z" fill="white"/>
<path d="M235.323 88.5478C237.361 88.5478 239.012 86.896 239.012 84.8583C239.012 82.8207 237.361 81.1688 235.323 81.1688C233.285 81.1688 231.633 82.8207 231.633 84.8583C231.633 86.896 233.285 88.5478 235.323 88.5478Z" fill="white"/>
<path d="M180.903 88.5478C182.941 88.5478 184.592 86.896 184.592 84.8583C184.592 82.8207 182.941 81.1688 180.903 81.1688C178.865 81.1688 177.213 82.8207 177.213 84.8583C177.213 86.896 178.865 88.5478 180.903 88.5478Z" fill="white"/>
<path d="M193.816 88.5478C195.854 88.5478 197.506 86.896 197.506 84.8583C197.506 82.8207 195.854 81.1688 193.816 81.1688C191.778 81.1688 190.127 82.8207 190.127 84.8583C190.127 86.896 191.778 88.5478 193.816 88.5478Z" fill="white"/>
<path d="M139.396 88.5478C141.434 88.5478 143.086 86.896 143.086 84.8583C143.086 82.8207 141.434 81.1688 139.396 81.1688C137.358 81.1688 135.707 82.8207 135.707 84.8583C135.707 86.896 137.358 88.5478 139.396 88.5478Z" fill="white"/>
<path d="M152.309 88.5478C154.347 88.5478 155.999 86.896 155.999 84.8583C155.999 82.8207 154.347 81.1688 152.309 81.1688C150.272 81.1688 148.62 82.8207 148.62 84.8583C148.62 86.896 150.272 88.5478 152.309 88.5478Z" fill="white"/>
<path d="M280.074 102.735V101.545L285.323 93.2389H286.186V95.082H285.603L281.637 101.358V101.451H288.706V102.735H280.074ZM285.696 105.184V102.373V101.819V93.2389H287.073V105.184H285.696Z" fill="#6C63FF"/>
<path d="M198.263 105.184V104.134L202.205 99.8182C202.668 99.3127 203.049 98.8733 203.349 98.5C203.648 98.1228 203.87 97.7689 204.014 97.4384C204.161 97.104 204.235 96.754 204.235 96.3885C204.235 95.9686 204.134 95.605 203.932 95.2978C203.734 94.9906 203.461 94.7534 203.115 94.5862C202.769 94.419 202.38 94.3354 201.949 94.3354C201.49 94.3354 201.089 94.4307 200.747 94.6212C200.409 94.8079 200.147 95.0703 199.96 95.4086C199.777 95.7469 199.686 96.1436 199.686 96.5985H198.309C198.309 95.8986 198.471 95.2842 198.793 94.7554C199.116 94.2265 199.555 93.8144 200.112 93.5188C200.671 93.2233 201.299 93.0755 201.995 93.0755C202.695 93.0755 203.316 93.2233 203.856 93.5188C204.397 93.8144 204.82 94.2129 205.128 94.7145C205.435 95.2162 205.588 95.7741 205.588 96.3885C205.588 96.8279 205.509 97.2576 205.349 97.6776C205.194 98.0936 204.922 98.5583 204.533 99.0716C204.148 99.581 203.613 100.203 202.929 100.938L200.246 103.808V103.901H205.798V105.184H198.263Z" fill="white"/>
<path d="M155.598 152.963L160.941 142.394V142.301H154.781V141.018H162.434V142.371L157.114 152.963H155.598Z" fill="#6C63FF"/>
<path d="M276.556 141.073V153.019H275.11V142.59H275.04L272.123 144.526V143.056L275.11 141.073H276.556ZM283.888 153.182C283.009 153.182 282.261 152.943 281.642 152.464C281.024 151.982 280.552 151.284 280.225 150.37C279.898 149.453 279.735 148.345 279.735 147.046C279.735 145.755 279.898 144.652 280.225 143.739C280.556 142.821 281.03 142.121 281.648 141.639C282.27 141.153 283.017 140.91 283.888 140.91C284.759 140.91 285.504 141.153 286.122 141.639C286.744 142.121 287.219 142.821 287.545 143.739C287.876 144.652 288.041 145.755 288.041 147.046C288.041 148.345 287.878 149.453 287.551 150.37C287.224 151.284 286.752 151.982 286.134 152.464C285.515 152.943 284.767 153.182 283.888 153.182ZM283.888 151.899C284.759 151.899 285.436 151.479 285.918 150.639C286.4 149.799 286.641 148.601 286.641 147.046C286.641 146.011 286.53 145.131 286.309 144.404C286.091 143.676 285.776 143.122 285.364 142.741C284.955 142.36 284.464 142.17 283.888 142.17C283.025 142.17 282.35 142.595 281.864 143.447C281.378 144.295 281.135 145.494 281.135 147.046C281.135 148.08 281.244 148.959 281.462 149.682C281.679 150.405 281.992 150.956 282.401 151.333C282.813 151.71 283.309 151.899 283.888 151.899Z" fill="#6C63FF"/>
<path d="M237.494 188.824V200.77H236.047V190.341H235.977L233.061 192.277V190.808L236.047 188.824H237.494ZM244.662 200.933C243.978 200.933 243.361 200.797 242.813 200.525C242.265 200.253 241.825 199.879 241.495 199.405C241.164 198.931 240.984 198.39 240.953 197.783H242.352C242.407 198.324 242.652 198.771 243.087 199.125C243.527 199.475 244.052 199.65 244.662 199.65C245.152 199.65 245.588 199.535 245.969 199.306C246.354 199.076 246.655 198.761 246.873 198.361C247.094 197.956 247.205 197.5 247.205 196.99C247.205 196.469 247.09 196.004 246.861 195.596C246.636 195.184 246.324 194.859 245.928 194.622C245.531 194.385 245.078 194.264 244.569 194.26C244.203 194.257 243.828 194.313 243.443 194.43C243.058 194.542 242.741 194.688 242.492 194.867L241.139 194.704L241.862 188.824H248.068V190.108H243.076L242.656 193.631H242.726C242.971 193.436 243.278 193.275 243.647 193.146C244.017 193.018 244.402 192.954 244.802 192.954C245.533 192.954 246.184 193.129 246.756 193.479C247.332 193.825 247.783 194.299 248.109 194.902C248.44 195.505 248.605 196.193 248.605 196.967C248.605 197.729 248.434 198.409 248.092 199.008C247.753 199.603 247.287 200.074 246.692 200.42C246.097 200.762 245.42 200.933 244.662 200.933Z" fill="#6C63FF"/>
<path d="M362.014 190.669V202.615H360.568V192.186H360.498L357.581 194.122V192.652L360.568 190.669H362.014ZM369.276 202.778C368.475 202.778 367.767 202.636 367.153 202.352C366.542 202.064 366.066 201.67 365.724 201.168C365.382 200.663 365.212 200.087 365.216 199.442C365.212 198.936 365.312 198.469 365.514 198.042C365.716 197.61 365.992 197.25 366.342 196.963C366.696 196.671 367.091 196.486 367.526 196.409V196.339C366.955 196.191 366.5 195.87 366.161 195.376C365.823 194.878 365.656 194.313 365.66 193.679C365.656 193.072 365.809 192.53 366.12 192.051C366.432 191.573 366.859 191.196 367.404 190.92C367.952 190.644 368.576 190.506 369.276 190.506C369.968 190.506 370.586 190.644 371.131 190.92C371.675 191.196 372.103 191.573 372.414 192.051C372.729 192.53 372.888 193.072 372.892 193.679C372.888 194.313 372.715 194.878 372.373 195.376C372.035 195.87 371.586 196.191 371.026 196.339V196.409C371.457 196.486 371.846 196.671 372.192 196.963C372.538 197.25 372.814 197.61 373.021 198.042C373.227 198.469 373.332 198.936 373.336 199.442C373.332 200.087 373.157 200.663 372.811 201.168C372.468 201.67 371.992 202.064 371.382 202.352C370.775 202.636 370.073 202.778 369.276 202.778ZM369.276 201.495C369.816 201.495 370.283 201.407 370.676 201.232C371.069 201.057 371.372 200.81 371.586 200.491C371.8 200.173 371.908 199.799 371.912 199.372C371.908 198.92 371.792 198.522 371.562 198.176C371.333 197.83 371.02 197.558 370.623 197.359C370.231 197.161 369.781 197.062 369.276 197.062C368.767 197.062 368.312 197.161 367.911 197.359C367.514 197.558 367.201 197.83 366.972 198.176C366.746 198.522 366.636 198.92 366.64 199.372C366.636 199.799 366.739 200.173 366.949 200.491C367.163 200.81 367.468 201.057 367.864 201.232C368.261 201.407 368.732 201.495 369.276 201.495ZM369.276 195.825C369.704 195.825 370.083 195.74 370.413 195.569C370.748 195.398 371.01 195.158 371.201 194.851C371.391 194.544 371.488 194.184 371.492 193.772C371.488 193.368 371.393 193.016 371.207 192.716C371.02 192.413 370.761 192.18 370.431 192.016C370.1 191.849 369.715 191.766 369.276 191.766C368.829 191.766 368.438 191.849 368.104 192.016C367.769 192.18 367.511 192.413 367.328 192.716C367.145 193.016 367.056 193.368 367.06 193.772C367.056 194.184 367.147 194.544 367.334 194.851C367.524 195.158 367.787 195.398 368.121 195.569C368.455 195.74 368.84 195.825 369.276 195.825Z" fill="#6C63FF"/>
<path d="M246.011 266.489C245.132 266.489 244.384 266.25 243.765 265.772C243.147 265.29 242.675 264.592 242.348 263.678C242.021 262.76 241.858 261.652 241.858 260.353C241.858 259.062 242.021 257.96 242.348 257.046C242.679 256.128 243.153 255.428 243.771 254.946C244.393 254.46 245.14 254.217 246.011 254.217C246.882 254.217 247.627 254.46 248.245 254.946C248.867 255.428 249.342 256.128 249.668 257.046C249.999 257.96 250.164 259.062 250.164 260.353C250.164 261.652 250.001 262.76 249.674 263.678C249.347 264.592 248.875 265.29 248.257 265.772C247.638 266.25 246.89 266.489 246.011 266.489ZM246.011 265.206C246.882 265.206 247.559 264.786 248.041 263.946C248.523 263.106 248.764 261.908 248.764 260.353C248.764 259.319 248.653 258.438 248.432 257.711C248.214 256.984 247.899 256.43 247.487 256.049C247.078 255.667 246.587 255.477 246.011 255.477C245.148 255.477 244.473 255.903 243.987 256.754C243.501 257.602 243.258 258.802 243.258 260.353C243.258 261.387 243.367 262.266 243.585 262.989C243.802 263.713 244.115 264.263 244.524 264.64C244.936 265.017 245.432 265.206 246.011 265.206Z" fill="#6C63FF"/>
</g>
<defs>
<filter id="filter0_d_55_348" x="0" y="0" width="458" height="320.685" filterUnits="userSpaceOnUse" color-interpolation-filters="sRGB">
<feFlood flood-opacity="0" result="BackgroundImageFix"/>
<feColorMatrix in="SourceAlpha" type="matrix" values="0 0 0 0 0 0 0 0 0 0 0 0 0 0 0 0 0 0 127 0" result="hardAlpha"/>
<feOffset dy="4"/>
<feGaussianBlur stdDeviation="2"/>
<feComposite in2="hardAlpha" operator="out"/>
<feColorMatrix type="matrix" values="0 0 0 0 0 0 0 0 0 0 0 0 0 0 0 0 0 0 0.25 0"/>
<feBlend mode="normal" in2="BackgroundImageFix" result="effect1_dropShadow_55_348"/>
<feBlend mode="normal" in="SourceGraphic" in2="effect1_dropShadow_55_348" result="shape"/>
</filter>
<clipPath id="clip0_55_348">
<rect width="450" height="312.685" fill="white" transform="translate(4)"/>
</clipPath>
</defs>
</svg>
