<svg width="16" height="20" viewBox="0 0 16 20" fill="none" xmlns="http://www.w3.org/2000/svg">
<path d="M8 0C5.243 0 3 2.243 3 5V8H2C1.46957 8 0.960859 8.21071 0.585786 8.58579C0.210714 8.96086 0 9.46957 0 10V18C0 18.5304 0.210714 19.0391 0.585786 19.4142C0.960859 19.7893 1.46957 20 2 20H14C14.5304 20 15.0391 19.7893 15.4142 19.4142C15.7893 19.0391 16 18.5304 16 18V10C16 9.46957 15.7893 8.96086 15.4142 8.58579C15.0391 8.21071 14.5304 8 14 8H13V5C13 2.243 10.757 0 8 0ZM5 5C5 3.346 6.346 2 8 2C9.654 2 11 3.346 11 5V8H5V5ZM9 15.723V18H7V15.723C6.65039 15.5228 6.36966 15.2213 6.19483 14.8584C6.02 14.4954 5.95928 14.0879 6.02068 13.6898C6.08208 13.2916 6.26272 12.9214 6.53876 12.6279C6.81481 12.3345 7.17332 12.1316 7.567 12.046C7.85942 11.9813 8.16262 11.9832 8.45425 12.0513C8.74587 12.1194 9.01849 12.2521 9.25198 12.4397C9.48548 12.6272 9.67391 12.8647 9.80337 13.1348C9.93283 13.4049 10 13.7005 10 14C9.99943 14.3497 9.90669 14.6932 9.73113 14.9956C9.55557 15.2981 9.30339 15.549 9 15.723Z" fill="black"/>
</svg>
